# xmcd CD database file
#
# Track frame offsets:
#	150
#	21719
#	60221
#	71816
#	105750
#	125321
#	171580
#	181535
#	193759
#
# Disc length: 2687 seconds
#
# Revision: 0
# Processed by: cddbd v1.4PL0 Copyright (c) Steve Scherf et al.
# Submitted via: CDex 1.50Beta7
#
DISCID=750a7d09
DTITLE=The Art Of Noise - Who's afraid of The Art Of Noise ?
DYEAR=1984
DGENRE=New Age
TTITLE0=A time to fear (Who's afraid)
TTITLE1=beat box (Diversion one)
TTITLE2=Snapshot
TTITLE3=Close (To the edit)
TTITLE4=Who's afraid (Of the art of noise)
TTITLE5=Moments in love
TTITLE6=Momento
TTITLE7=How to kill
TTITLE8=Realization
EXTD=YEAR: 1984
EXTT0=
EXTT1=
EXTT2=
EXTT3=
EXTT4=
EXTT5=
EXTT6=
EXTT7=
EXTT8=
PLAYORDER=
